<svg width="117" height="117" viewBox="0 0 117 117" fill="none" xmlns="http://www.w3.org/2000/svg">
<path d="M101.595 22.4737C99.1049 19.9826 96.1486 18.0065 92.8947 16.6583C89.6408 15.31 86.1532 14.6161 82.6311 14.6161C79.109 14.6161 75.6214 15.31 72.3675 16.6583C69.1136 18.0065 66.1573 19.9826 63.6674 22.4737L58.4998 27.6412L53.3323 22.4737C48.3028 17.4442 41.4814 14.6187 34.3686 14.6187C27.2558 14.6187 20.4343 17.4442 15.4048 22.4737C10.3753 27.5032 7.5498 34.3247 7.5498 41.4375C7.5498 48.5503 10.3753 55.3717 15.4048 60.4012L58.4998 103.496L101.595 60.4012C104.086 57.9113 106.062 54.955 107.41 51.7011C108.759 48.4472 109.452 44.9596 109.452 41.4375C109.452 37.9154 108.759 34.4277 107.41 31.1739C106.062 27.92 104.086 24.9637 101.595 22.4737Z" stroke="white" stroke-opacity="0.7" stroke-width="4" stroke-linecap="round" stroke-linejoin="round"/>
</svg>
