<svg width="24" height="24" viewBox="0 0 24 24" fill="none" xmlns="http://www.w3.org/2000/svg">
<path d="M12 3.06061V1.06043C12 0.557586 11.3925 0.311753 11.0437 0.669328L7.89375 3.78694C7.66875 4.01042 7.66875 4.35683 7.89375 4.58031L11.0325 7.69792C11.3925 8.04432 12 7.79849 12 7.29565V5.29546C15.7237 5.29546 18.75 8.30133 18.75 12C18.75 12.8828 18.5812 13.7432 18.255 14.5142C18.0862 14.9165 18.21 15.3746 18.5138 15.6763C19.0875 16.2462 20.055 16.0451 20.3588 15.2964C20.775 14.2795 21 13.1621 21 12C21 7.06099 16.9725 3.06061 12 3.06061ZM12 18.7045C8.27625 18.7045 5.25 15.6987 5.25 12C5.25 11.1172 5.41875 10.2568 5.745 9.4858C5.91375 9.08353 5.79 8.62538 5.48625 8.32368C4.9125 7.75379 3.945 7.95493 3.64125 8.7036C3.225 9.72046 3 10.8379 3 12C3 16.939 7.0275 20.9394 12 20.9394V22.9396C12 23.4424 12.6075 23.6882 12.9563 23.3307L16.095 20.2131C16.32 19.9896 16.32 19.6432 16.095 19.4197L12.9563 16.3021C12.6075 15.9557 12 16.2015 12 16.7044V18.7045Z" fill="white"/>
</svg>
