<svg width="1080" height="1080" xmlns="http://www.w3.org/2000/svg" xml:space="preserve" version="1.1">
 <desc>Created with Fabric.js 5.2.4</desc>

 <g class="layer">
  <title>Layer 1</title>
  <g id="svg_2">
   <desc fill="#ffffff" stroke="#ffffff">Created with Fabric.js 5.2.4</desc>
   <g id="svg_9" class="layer">
    <title fill="#ffffff" stroke="#ffffff">Layer 1</title>
    <ellipse stroke="#ffffff" ry="487.95454" rx="487.95454" id="svg_1" cy="540.00001" cx="540.00001" stroke-width="99" fill="#ffffff"/>
   </g>
  </g>
  <g transform="matrix(1 0 0 1 540 540)" id="3cb015c4-db88-4971-9a25-2e0c66a66d4e"/>
  <g id="svg_3">
   <g id="svg_4"/>
  </g>
  <g id="svg_5">
   <g id="svg_6"/>
  </g>
  <g transform="matrix(8.42094 0 0 8.42094 326.958 883.598)" id="svg_8">
   <path stroke-width="0" stroke-miterlimit="4" stroke-dashoffset="0" stroke="rgb(0,0,0)" id="svg_7" fill-rule="nonzero" fill="#4bea7d" d="m-10.06874,-40.96395l3.94,-3.94c1.92,-1.92 5.09,-1.92 7.01,0l17.06,17.07l32.74,-32.79c1.92,-1.92 5.09,-1.92 7.01,0l3.94,3.94c1.92,1.92 1.92,5.03 0,6.95l-40.21,40.21l-0.1,0.11l-0.11,0.1l-0.1,0.05l-0.05,0.11l-0.11,0.05l-0.1,0.1l-0.1,0.06l-0.11,0.05l-0.1,0.1l-0.11,0.05l-0.1,0.06l-0.1,0.05l-0.11,0.05l-0.1,0.05l-0.16,0.06l-0.1,0.05l-0.11,0.05l-0.1,0.05l-0.11,0l-0.1,0.05l-0.15,0.06l-0.11,0l-0.1,0.05l-0.26,0l-0.11,0.05l-0.2,0l-0.16,0.05l-0.67,0l-0.16,-0.05l-0.21,0l-0.1,-0.05l-0.26,0l-0.1,-0.05l-0.11,0l-0.15,-0.06l-0.11,-0.05l-0.1,0l-0.11,-0.05l-0.1,-0.05l-0.1,-0.05l-0.11,-0.06l-0.05,0c-0.47,-0.2 -0.93,-0.57 -1.4,-0.98l-24.49,-24.49c-1.91,-1.92 -1.91,-5.04 0.01,-6.96z"/>
  </g>
  <path id="svg_10" d="m467.57368,284.85802l0.56913,0l0.17587,-0.54067l0.17587,0.54067l0.56913,0l-0.46044,0.33415l0.17588,0.54067l-0.46044,-0.33416l-0.46044,0.33416l0.17588,-0.54067l-0.46044,-0.33415z" stroke="null" fill="#ffffff"/>
 </g>
</svg>