<svg width="1080" height="1080" xmlns="http://www.w3.org/2000/svg" xml:space="preserve" version="1.1">
 <desc>Created with Fabric.js 5.2.4</desc>

 <g class="layer">
  <title>Layer 1</title>
  <g transform="matrix(1 0 0 1 540 540)" id="3901f139-2aad-4008-9483-2e1b0793da16" fill-opacity="0">
   <rect y="-540" x="-540" width="1080" stroke-miterlimit="4" stroke-dashoffset="0" id="svg_1" height="1080" fill-rule="nonzero" fill="#000000"/>
  </g>
  <g transform="matrix(1 0 0 1 540 540)" id="3cb015c4-db88-4971-9a25-2e0c66a66d4e"/>
  <path stroke-width="0" stroke-miterlimit="4" stroke-dashoffset="0" id="svg_2" fill-rule="nonzero" fill="#e48860" d="m127.52373,789.92341l110.94026,-105.7146l556.01195,-552.93603c27.70733,-27.70733 73.45328,-27.70733 101.16061,0l56.85774,56.85774c27.70733,27.70733 27.70733,72.58743 0,100.29475l-663.81078,660.01331l-1.44309,1.5874l-1.5874,1.44309l-1.44309,0.72154l-0.72154,1.5874l-1.5874,0.72154l-1.44309,1.44309l-1.44309,0.86585l-1.5874,0.72154l-1.44309,1.44309l-1.5874,0.72154l-1.44309,0.86585l-1.44309,0.72154l-1.5874,0.72154l-1.44309,0.72154l-2.30894,0.86585l-1.44309,0.72154l-1.5874,0.72154l-1.44309,0.72154l-1.5874,0l-1.44309,0.72154l-2.16463,0.86585l-1.5874,0l-1.44309,0.72154l-3.75203,0l-1.5874,0.72154l-2.88618,0l-2.30894,0.72154l-9.6687,0l-2.30894,-0.72154l-3.03049,0l-1.44309,-0.72154l-3.75203,0l-1.44309,-0.72154l-1.5874,0l-2.16463,-0.86585l-1.5874,-0.72154l-1.44309,0l-1.5874,-0.72154l-1.44309,-0.72154l-1.44309,-0.72154l-1.5874,-0.86585l-0.72154,0c-6.78252,-2.88618 -13.42074,-8.22561 -20.20326,-14.14228l-60.14349,-58.22042c-27.56302,-27.70733 -27.56302,-72.73173 0.14431,-100.43906l-0.00002,0.00004z"/>
  <g id="svg_3">
   <g id="svg_4"/>
  </g>
  <g id="svg_5">
   <g id="svg_6"/>
  </g>
  <path transform="rotate(90 540 540)" stroke-width="0" stroke-miterlimit="4" stroke-dashoffset="0" id="svg_8" fill-rule="nonzero" fill="#e48860" d="m127.52375,789.92344l110.94026,-105.71461l556.01196,-552.93603c27.70732,-27.70733 73.45328,-27.70733 101.1606,0l56.85775,56.85775c27.70732,27.70732 27.70732,72.58742 0,100.29475l-663.81078,660.0133l-1.44309,1.5874l-1.5874,1.44309l-1.44309,0.72155l-0.72154,1.5874l-1.5874,0.72154l-1.44309,1.44309l-1.44309,0.86586l-1.5874,0.72154l-1.44309,1.44309l-1.5874,0.72155l-1.44309,0.86585l-1.44309,0.72154l-1.5874,0.72155l-1.44309,0.72154l-2.30894,0.86586l-1.44309,0.72154l-1.5874,0.72155l-1.44309,0.72154l-1.5874,0l-1.44309,0.72155l-2.16463,0.86585l-1.5874,0l-1.44309,0.72155l-3.75204,0l-1.5874,0.72154l-2.88618,0l-2.30894,0.72155l-9.6687,0l-2.30895,-0.72155l-3.03049,0l-1.44309,-0.72154l-3.75203,0l-1.44309,-0.72155l-1.5874,0l-2.16463,-0.86585l-1.5874,-0.72155l-1.44309,0l-1.5874,-0.72154l-1.44309,-0.72155l-1.44309,-0.72154l-1.5874,-0.86586l-0.72154,0c-6.78253,-2.88617 -13.42074,-8.22561 -20.20326,-14.14228l-60.1435,-58.22041c-27.56301,-27.70733 -27.56301,-72.73174 0.14431,-100.43906z"/>
 </g>
</svg>