<svg width="23.999999999999996" height="23.999999999999996" xmlns="http://www.w3.org/2000/svg" fill="#e8eaed">
 <g>
  <title>Layer 1</title>
  <path d="m0,0l24,0l0,24l-24,0l0,-24z" fill="none" id="svg_1"/>
  <path d="m12,3.95367c-5.36422,0 -9.94526,3.33654 -11.80128,8.04633c1.85602,4.70978 6.43706,8.04633 11.80128,8.04633s9.94526,-3.33654 11.80128,-8.04633c-1.85602,-4.70978 -6.43706,-8.04633 -11.80128,-8.04633zm0,13.41055c-2.96105,0 -5.36422,-2.40317 -5.36422,-5.36422s2.40317,-5.36422 5.36422,-5.36422s5.36422,2.40317 5.36422,5.36422s-2.40317,5.36422 -5.36422,5.36422zm0,-8.58275c-1.78092,0 -3.21853,1.43761 -3.21853,3.21853s1.43761,3.21853 3.21853,3.21853s3.21853,-1.43761 3.21853,-3.21853s-1.43761,-3.21853 -3.21853,-3.21853z" id="svg_2" stroke="null" fill="#17181c"/>
 </g>

</svg>