<svg width="142" height="133" viewBox="0 0 142 133" fill="none" xmlns="http://www.w3.org/2000/svg">
<rect y="21" width="142" height="112" rx="25" fill="white"/>
<path d="M88.0496 21.223H59.0166V133H88.0496V21.223Z" fill="#395F34"/>
<path d="M142 63.4392H0V92.223H142V63.4392Z" fill="#395F34"/>
<path opacity="0.2" d="M65.3251 95.9009C66.1248 96.1065 66.9559 96.229 67.8125 96.2588L100.882 132.571L116.124 101.36L79.4436 87.6048C79.6892 86.6646 79.8333 85.6834 79.8333 84.6662C79.8333 84.1262 79.7836 83.599 79.7122 83.0785L116.124 69.4239L100.882 38.2134L69.1122 73.0981C68.8168 73.0756 68.5213 73.053 68.2201 73.053C67.2186 73.053 66.2522 73.1932 65.3251 73.4315C58.6423 52.0482 38.4613 43.2942 38.4613 43.2942L16.6865 70.1497C32.7036 68.548 49.1016 78.3294 56.6598 83.6174C56.6288 83.9634 56.6069 84.3121 56.6069 84.6662C56.6069 85.0203 56.6288 85.369 56.6598 85.715C49.1016 91.003 32.7036 100.784 16.6865 99.1827L38.4613 126.038C38.4613 126.038 58.6422 117.284 65.3251 95.9009Z" fill="black"/>
<path d="M102.075 127.578C101.417 127.578 100.785 127.302 100.335 126.809L69.7141 93.1851C69.4617 92.9081 69.094 92.7325 68.6789 92.6907L68.5468 92.677C67.7986 92.594 67.1165 92.9983 66.8822 93.6627C60.8382 110.799 46.1235 119.52 41.7578 121.784C40.7741 122.296 39.5524 122.039 38.8522 121.173L20.7515 98.8482C20.1777 98.1411 20.0617 97.1876 20.4483 96.3598C20.8296 95.5439 21.6225 95.0293 22.518 95.0157C36.5115 94.7998 50.2609 86.8125 57.2113 82.0707C57.6293 81.7848 57.879 81.292 57.8781 80.7524C57.879 80.1887 57.6297 79.6958 57.2113 79.4107C50.2621 74.6689 36.5143 66.6816 22.5176 66.4658C21.6221 66.4521 20.8292 65.9367 20.4483 65.1209C20.0617 64.293 20.1777 63.3395 20.7515 62.6324L38.8526 40.3078C39.5536 39.4445 40.7753 39.1868 41.7574 39.6957C46.1227 41.9611 60.8341 50.6813 66.8794 67.8115C67.1137 68.4751 67.7829 68.889 68.4566 68.8077C69.1899 68.7151 69.9203 68.6942 70.6262 68.7465L100.335 36.1241C100.861 35.5467 101.637 35.2672 102.409 35.3792C103.183 35.4903 103.849 35.9751 104.191 36.6765L117.241 63.3975C117.532 63.9926 117.557 64.6868 117.313 65.3021C117.068 65.9166 116.572 66.4022 115.952 66.6341L82.9143 79.0234C82.3067 79.2513 81.9097 79.8456 81.9262 80.5011L81.929 80.7403C81.929 81.2541 81.8932 81.7768 81.8227 82.2938C81.7321 82.959 82.1469 83.621 82.8088 83.8698L115.952 96.2985C116.572 96.5313 117.068 97.0169 117.313 97.6322C117.557 98.2474 117.531 98.9408 117.241 99.536L104.191 126.257C103.849 126.958 103.183 127.443 102.409 127.554C102.298 127.57 102.186 127.578 102.075 127.578Z" fill="#395F34"/>
<path d="M69.8971 4.83604C78.2395 11.9284 75.6053 28.3419 75.6053 28.3419C75.6053 28.3419 59.4453 33.2563 51.1029 26.164C42.7604 19.0716 45.3947 2.65814 45.3947 2.65814C45.3947 2.65814 61.5546 -2.25632 69.8971 4.83604Z" fill="#395F34"/>
<path d="M98.0694 24.8497C90.7537 33.2027 73.7538 30.6243 73.7538 30.6243C73.7538 30.6243 68.6149 14.5032 75.9305 6.15027C83.2461 -2.20265 100.246 0.375645 100.246 0.375645C100.246 0.375645 105.385 16.4968 98.0694 24.8497Z" fill="#395F34"/>
</svg>
