<svg width="32" height="32" viewBox="0 0 32 32" fill="none" xmlns="http://www.w3.org/2000/svg">
<g clip-path="url(#clip0_1336_234)">
<path d="M12.9463 24.3867C13.4663 23.8667 13.4663 23.0267 12.9463 22.5067L7.77301 17.3333L27.9997 17.3333C28.733 17.3333 29.333 16.7333 29.333 16C29.333 15.2667 28.733 14.6667 27.9997 14.6667L7.75968 14.6667L12.933 9.49334C13.453 8.97334 13.453 8.13334 12.933 7.61334C12.413 7.09334 11.573 7.09334 11.053 7.61334L3.59968 15.0667C3.07968 15.5867 3.07968 16.4267 3.59968 16.9467L11.0663 24.3867C11.573 24.9067 12.4263 24.9067 12.9463 24.3867Z" fill="white" fill-opacity="0.7"/>
</g>
<defs>
<clipPath id="clip0_1336_234">
<rect width="32" height="32" fill="white" transform="translate(32 32) rotate(180)"/>
</clipPath>
</defs>
</svg>
