<svg width="31" height="31" viewBox="0 0 31 31" fill="none" xmlns="http://www.w3.org/2000/svg">
<g clip-path="url(#clip0_1351_191)">
<path d="M21.8932 10.9333L17.3264 15.5L21.8932 20.0667C22.3955 20.5691 22.3955 21.3911 21.8932 21.8934C21.3908 22.3958 20.5688 22.3958 20.0665 21.8934L15.4997 17.3267L10.933 21.8934C10.4307 22.3958 9.60866 22.3958 9.10631 21.8934C8.60397 21.3911 8.60397 20.5691 9.10631 20.0667L13.673 15.5L9.10631 10.9333C8.60397 10.4309 8.60397 9.60892 9.10631 9.10658C9.60866 8.60424 10.4307 8.60424 10.933 9.10658L15.4997 13.6733L20.0665 9.10658C20.5688 8.60424 21.3908 8.60424 21.8932 9.10658C22.3955 9.60892 22.3955 10.4309 21.8932 10.9333Z" fill="black"/>
</g>
<defs>
<clipPath id="clip0_1351_191">
<rect width="31" height="31" fill="white"/>
</clipPath>
</defs>
</svg>
