<svg width="31" height="31" viewBox="0 0 31 31" fill="none" xmlns="http://www.w3.org/2000/svg">
<g clip-path="url(#clip0_1336_250)">
<path d="M23.2497 16.7917H16.7913V23.25C16.7913 23.9604 16.2101 24.5417 15.4997 24.5417C14.7893 24.5417 14.208 23.9604 14.208 23.25V16.7917H7.74967C7.03926 16.7917 6.45801 16.2104 6.45801 15.5C6.45801 14.7896 7.03926 14.2083 7.74967 14.2083H14.208V7.75C14.208 7.03959 14.7893 6.45834 15.4997 6.45834C16.2101 6.45834 16.7913 7.03959 16.7913 7.75V14.2083H23.2497C23.9601 14.2083 24.5413 14.7896 24.5413 15.5C24.5413 16.2104 23.9601 16.7917 23.2497 16.7917Z" fill="white" fill-opacity="0.7"/>
</g>
<defs>
<clipPath id="clip0_1336_250">
<rect width="31" height="31" fill="white"/>
</clipPath>
</defs>
</svg>
