<svg width="25" height="24" viewBox="0 0 25 24" fill="none" xmlns="http://www.w3.org/2000/svg">
<g clip-path="url(#clip0_1336_254)">
<path d="M15.9996 14H15.2096L14.9296 13.73C16.1296 12.33 16.7496 10.42 16.4096 8.39002C15.9396 5.61002 13.6196 3.39002 10.8196 3.05002C6.58965 2.53002 3.02965 6.09001 3.54965 10.32C3.88965 13.12 6.10965 15.44 8.88965 15.91C10.9196 16.25 12.8296 15.63 14.2296 14.43L14.4996 14.71V15.5L18.7496 19.75C19.1596 20.16 19.8296 20.16 20.2396 19.75C20.6496 19.34 20.6496 18.67 20.2396 18.26L15.9996 14ZM9.99965 14C7.50965 14 5.49965 11.99 5.49965 9.50002C5.49965 7.01002 7.50965 5.00002 9.99965 5.00002C12.4896 5.00002 14.4996 7.01002 14.4996 9.50002C14.4996 11.99 12.4896 14 9.99965 14Z" fill="white" fill-opacity="0.7"/>
</g>
<defs>
<clipPath id="clip0_1336_254">
<rect width="24" height="24" fill="white" transform="translate(0.5)"/>
</clipPath>
</defs>
</svg>
