<svg width="24.000000000000004" height="24.000000000000004" xmlns="http://www.w3.org/2000/svg" class="w-6 h-6" stroke-width="1.5">
 <g class="layer">
  <title>Layer 1</title>
  <path d="m16.1,2.94a2.51,2.51 0 0 0 -2.42,-1.83l-3.35,0c-1.15,0 -2.12,0.77 -2.42,1.83m8.2,0c0.06,0.21 0.09,0.45 0.09,0.68l0,0a0.84,0.84 0 0 1 -0.84,0.84l-6.7,0a0.84,0.84 0 0 1 -0.84,-0.84l0,0c0,-0.23 0.03,-0.47 0.09,-0.68m8.2,0c0.71,0.06 1.43,0.12 2.14,0.2c1.23,0.15 2.13,1.21 2.13,2.45l0,14.78a2.51,2.51 0 0 1 -2.51,2.51l-11.72,0a2.51,2.51 0 0 1 -2.51,-2.51l0,-14.78c0,-1.24 0.9,-2.3 2.13,-2.45a53.83,53.83 0 0 1 2.14,-0.2" fill="none" id="svg_1" stroke="#17181c" stroke-linecap="round" stroke-linejoin="round" stroke-width="3"/>
 </g>

</svg>