<svg width="24" height="24" xmlns="http://www.w3.org/2000/svg" xml:space="preserve" version="1.1">
 <desc>Created with Fabric.js 5.3.0</desc>

 <g>
  <title>Layer 1</title>
  <g id="Mkra6Xs0CxW0gl8-GRMn_" transform="matrix(0.0373966428 0 0 0.0373966428 12.0024195352 11.9975804648)">
   <path id="svg_1" fill-rule=" nonzero" fill="#17181c" stroke-miterlimit="4" stroke-linejoin=" miter" stroke-dashoffset="0" stroke-dasharray=" none" stroke=" none" stroke-linecap=" butt" d="m0,143q-8,0 -15,-2.5q-7,-2.5 -13,-8.5l-144,-144q-12,-12 -11.5,-28q0.5,-16 11.5,-28q12,-12 28.5,-12.5q16.5,-0.5 28.5,11.5l75,75l0,-286q0,-17 11.5,-28.5q11.5,-11.5 28.5,-11.5q17,0 28.5,11.5q11.5,11.5 11.5,28.5l0,286l75,-75q12,-12 28.5,-11.5q16.5,0.5 28.5,12.5q11,12 11.5,28q0.5,16 -11.5,28l-144,144q-6,6 -13,8.5q-7,2.5 -15,2.5zm-240,177q-33,0 -56.5,-23.5q-23.5,-23.5 -23.5,-56.5l0,-80q0,-17 11.5,-28.5q11.5,-11.5 28.5,-11.5q17,0 28.5,11.5q11.5,11.5 11.5,28.5l0,80l480,0l0,-80q0,-17 11.5,-28.5q11.5,-11.5 28.5,-11.5q17,0 28.5,11.5q11.5,11.5 11.5,28.5l0,80q0,33 -23.5,56.5q-23.5,23.5 -56.5,23.5l-480,0z"/>
  </g>
 </g>
</svg>