<svg width="24" height="24" xmlns="http://www.w3.org/2000/svg" version="1.1" xml:space="preserve">
 <desc>Created with Fabric.js 5.3.0</desc>

 <g>
  <title>Layer 1</title>
  <g transform="matrix(0.0305057 0 0 0.0305057 11.9733 11.9733)" id="ZBHx1wad31S2R-jx07H9N">
   <path d="m-286,392q-43.725,0 -74.863,-31.137q-31.137,-31.138 -31.137,-74.863l0,-572q0,-43.725 31.137,-74.862q31.138,-31.138 74.863,-31.138l252,0q22,0 37.5,15.5q15.5,15.5 15.5,37.5q0,22 -15.5,37.5q-15.5,15.5 -37.5,15.5l-252,0l0,572l572,0l0,-252q0,-22 15.5,-37.5q15.5,-15.5 37.5,-15.5q22,0 37.5,15.5q15.5,15.5 15.5,37.5l0,252q0,43.725 -31.138,74.863q-31.137,31.137 -74.862,31.137l-572,0zm572,-604l-344,344q-15,15 -37,15q-22,0 -37,-15q-15,-15 -15,-37q0,-22 15,-37l344,-344l-60,0q-22,0 -37.5,-15.5q-15.5,-15.5 -15.5,-37.5q0,-22 15.5,-37.5q15.5,-15.5 37.5,-15.5l240,0l0,240q0,22 -15.5,37.5q-15.5,15.5 -37.5,15.5q-22,0 -37.5,-15.5q-15.5,-15.5 -15.5,-37.5l0,-60z" stroke-linecap=" butt" stroke-dasharray=" none" stroke-dashoffset="0" stroke-linejoin=" miter" stroke-miterlimit="4" fill="#17181c" fill-rule=" nonzero" id="svg_1"/>
  </g>
 </g>
</svg>