<svg width="24" height="24" viewBox="0 0 24 24" fill="none" xmlns="http://www.w3.org/2000/svg">
<path d="M6.45683 13.8967H22.1222C22.6373 13.8967 23.0764 13.7152 23.4393 13.3523C23.8023 12.9893 23.9838 12.5503 23.9838 12.0351C23.9838 11.52 23.8023 11.0809 23.4393 10.718C23.0764 10.355 22.6373 10.1736 22.1222 10.1736H6.45683L12.9899 3.64048C13.3646 3.26582 13.5519 2.82091 13.5519 2.30576C13.5519 1.79061 13.3646 1.3457 12.9899 0.971043C12.6153 0.596386 12.1704 0.409058 11.6552 0.409058C11.14 0.409058 10.6951 0.596386 10.3205 0.971043L0.555984 10.7355C0.368656 10.9229 0.234013 11.1219 0.152057 11.3327C0.0701011 11.5434 0.0291229 11.7776 0.0291229 12.0351C0.0291229 12.2927 0.0701011 12.5269 0.152057 12.7376C0.234013 12.9484 0.368656 13.1474 0.555984 13.3347L10.2502 23.029C10.6249 23.4036 11.0698 23.591 11.585 23.591C12.1001 23.591 12.545 23.4036 12.9197 23.029C13.2943 22.6543 13.4817 22.2094 13.4817 21.6943C13.4817 21.1791 13.2943 20.7342 12.9197 20.3596L6.45683 13.8967Z" fill="white"/>
</svg>
