<svg width="100" height="100" viewBox="0 0 100 100" fill="none" xmlns="http://www.w3.org/2000/svg">
<path d="M84.5961 23.3C83.2441 21.258 81.3301 19.696 79.0601 18.788C74.1321 16.812 69.8941 15.492 66.1021 14.748C63.4421 14.228 60.8081 15.536 59.5421 18L59.2261 18.616C56.4181 18.306 53.4361 18.202 50.0401 18.288C46.5581 18.204 43.5661 18.306 40.7541 18.616L40.4401 18C39.1741 15.536 36.5361 14.23 33.8821 14.75C30.0901 15.492 25.8501 16.812 20.9241 18.79C18.6561 19.698 16.7421 21.258 15.3881 23.302C5.94609 37.564 2.24609 52.948 4.07809 70.336C4.14209 70.946 4.48209 71.492 5.00009 71.818C12.2641 76.398 18.5501 79.534 24.7821 81.69C27.3881 82.6 30.2781 81.582 31.8161 79.232L34.5581 75.03C32.3741 74.206 30.2421 73.23 28.1981 72.064C27.2401 71.518 26.9061 70.296 27.4521 69.338C27.9981 68.376 29.2201 68.038 30.1801 68.592C36.2621 72.06 43.1381 73.894 50.0641 73.894C56.9901 73.894 63.8661 72.06 69.9481 68.592C70.9061 68.038 72.1281 68.376 72.6761 69.338C73.2221 70.296 72.8881 71.518 71.9301 72.064C69.8181 73.27 67.6101 74.274 65.3481 75.112L68.1701 79.316C69.3321 81.046 71.2501 82.03 73.2261 82.03C73.8701 82.03 74.5201 81.924 75.1521 81.708C81.4021 79.55 87.7001 76.41 94.9801 71.82C95.4981 71.494 95.8381 70.946 95.9021 70.338C97.7381 52.948 94.0381 37.562 84.5961 23.3ZM37.2161 57.966C33.3641 57.966 30.1941 53.908 30.1941 48.976C30.1941 44.044 33.3641 39.986 37.2161 39.986C41.0681 39.986 44.2381 44.044 44.2381 48.976C44.2381 53.908 41.0681 57.966 37.2161 57.966ZM63.2021 57.914C59.3861 57.914 56.2461 53.832 56.2461 48.87C56.2461 43.908 59.3861 39.826 63.2021 39.826C67.0181 39.826 70.1581 43.908 70.1581 48.87C70.1581 53.832 67.0181 57.914 63.2021 57.914Z" fill="white"/>
</svg>
