<?xml version="1.0" encoding="UTF-8" standalone="no" ?>
<!DOCTYPE svg PUBLIC "-//W3C//DTD SVG 1.1//EN" "http://www.w3.org/Graphics/SVG/1.1/DTD/svg11.dtd">
<svg xmlns="http://www.w3.org/2000/svg" xmlns:xlink="http://www.w3.org/1999/xlink" version="1.1" width="24" height="24" viewBox="0 0 24 24" xml:space="preserve">
<desc>Created with Fabric.js 5.3.0</desc>
<defs>
</defs>
<g transform="matrix(0.0373966428 0 0 0.0373966428 12.0024195352 11.9975804648)" id="Mkra6Xs0CxW0gl8-GRMn_"  >
<path style="stroke: none; stroke-width: 1; stroke-dasharray: none; stroke-linecap: butt; stroke-dashoffset: 0; stroke-linejoin: miter; stroke-miterlimit: 4; fill: rgb(33,33,33); fill-rule: nonzero; opacity: 1;"  transform=" translate(-480, 480)" d="M 480 -337 Q 472 -337 465 -339.5 Q 458 -342 452 -348 L 308 -492 Q 296 -504 296.5 -520 Q 297 -536 308 -548 Q 320 -560 336.5 -560.5 Q 353 -561 365 -549 L 440 -474 L 440 -760 Q 440 -777 451.5 -788.5 Q 463 -800 480 -800 Q 497 -800 508.5 -788.5 Q 520 -777 520 -760 L 520 -474 L 595 -549 Q 607 -561 623.5 -560.5 Q 640 -560 652 -548 Q 663 -536 663.5 -520 Q 664 -504 652 -492 L 508 -348 Q 502 -342 495 -339.5 Q 488 -337 480 -337 Z M 240 -160 Q 207 -160 183.5 -183.5 Q 160 -207 160 -240 L 160 -320 Q 160 -337 171.5 -348.5 Q 183 -360 200 -360 Q 217 -360 228.5 -348.5 Q 240 -337 240 -320 L 240 -240 L 720 -240 L 720 -320 Q 720 -337 731.5 -348.5 Q 743 -360 760 -360 Q 777 -360 788.5 -348.5 Q 800 -337 800 -320 L 800 -240 Q 800 -207 776.5 -183.5 Q 753 -160 720 -160 L 240 -160 Z" stroke-linecap="round" />
</g>
</svg>