<svg width="100" height="100" viewBox="0 0 100 100" fill="none" xmlns="http://www.w3.org/2000/svg">
<path d="M8 58.0591C8 48.3359 10.8881 38.9645 16.6643 29.9449C22.4405 20.9253 30.3824 13.0012 40.4899 6.17272C42.634 4.69388 44.8579 4.61369 47.1615 5.93214C49.4659 7.25059 50.6181 9.24939 50.6181 11.9285V18.2211C50.6181 20.9779 51.5716 23.2884 53.4787 25.1527C55.3848 27.0178 57.7169 27.9504 60.4748 27.9504C61.8783 27.9504 63.2073 27.643 64.4617 27.0282C65.7169 26.4134 66.8299 25.5321 67.8007 24.3844C68.5705 23.4264 69.5568 22.8275 70.7595 22.5878C71.9621 22.3481 73.0786 22.6042 74.1088 23.3561C79.6643 27.3597 84.0353 32.4261 87.2217 38.5553C90.4072 44.6837 92 51.1854 92 58.0604C92 65.7185 90.1464 72.7022 86.4393 79.0116C82.7322 85.3202 77.8508 90.3163 71.7953 94C73.329 91.8529 74.5248 89.5044 75.3826 86.9546C76.2395 84.4048 76.668 81.6985 76.668 78.8357C76.668 75.2572 76.0012 71.8895 74.6675 68.7326C73.3338 65.5766 71.4224 62.7539 68.9335 60.2645L50 41.7256L31.21 60.2606C28.6478 62.8233 26.6943 65.6672 25.3493 68.7921C24.0044 71.9162 23.332 75.2641 23.332 78.8357C23.332 81.6925 23.7605 84.3966 24.6174 86.9482C25.4752 89.5006 26.671 91.8512 28.2047 94C22.1491 90.3163 17.2678 85.3197 13.5607 79.0103C9.85356 72.7009 8 65.7172 8 58.0591ZM50 58.2221L60.5537 68.5477C61.9606 69.9566 63.037 71.5273 63.7827 73.2597C64.5276 74.992 64.9 76.8481 64.9 78.8279C64.9 82.8816 63.4508 86.3355 60.5524 89.1897C57.653 92.0439 54.133 93.471 49.9922 93.471C45.8515 93.471 42.3344 92.0439 39.4412 89.1897C36.547 86.3355 35.0999 82.8816 35.0999 78.8279C35.0999 76.9059 35.4719 75.0623 36.216 73.2972C36.96 71.5321 38.035 69.9515 39.4412 68.5554L50 58.2221Z" fill="#E2CABF"/>
</svg>
