<svg width="100" height="100" viewBox="0 0 100 100" fill="none" xmlns="http://www.w3.org/2000/svg">
<rect x="8" y="19" width="85" height="62" rx="15" fill="#0E67CF"/>
<rect x="41" y="19" width="19" height="62" fill="white"/>
<rect x="8" y="60" width="20" height="85" transform="rotate(-90 8 60)" fill="white"/>
<path d="M48.7156 57.4595C46.946 56.106 46.6233 53.5674 47.998 51.8142L50.1155 49.1136C51.4732 47.3821 53.9744 47.0722 55.7135 48.42L88.9678 74.191C89.3801 74.5105 89.7333 75.0334 89.5 75.4999C89.3555 75.7889 87.8787 78.2251 84.117 79.6941C83.918 79.7719 83.7268 79.8453 83.5433 79.9146C81.3909 80.7278 77.9564 79.825 76.1288 78.4271L48.7156 57.4595Z" fill="white"/>
<path d="M52.2696 42.7477C54.0385 44.1015 54.3608 46.6395 52.9863 48.3924L51.0034 50.9213C49.6456 52.653 47.1442 52.9627 45.405 51.6146L12.0168 25.733C11.6095 25.4173 11.2555 24.9024 11.4838 24.4404C11.6245 24.156 13.067 21.7616 16.7933 20.3492C16.9738 20.2808 17.1476 20.216 17.3151 20.1544C19.4761 19.3605 22.9174 20.2845 24.7456 21.6836L52.2696 42.7477Z" fill="white"/>
<path d="M52.2764 57.4595C54.046 56.106 54.3687 53.5674 52.994 51.8142L50.8764 49.1136C49.5188 47.3821 47.0176 47.0722 45.2784 48.42L12.0241 74.191C11.6119 74.5105 11.2587 75.0334 11.4919 75.4999C11.6365 75.7889 13.1133 78.2251 16.8749 79.6941C17.074 79.7719 17.2651 79.8453 17.4486 79.9146C19.6011 80.7278 23.0356 79.825 24.8632 78.4271L52.2764 57.4595Z" fill="white"/>
<path d="M48.7224 42.7477C46.9534 44.1015 46.6312 46.6395 48.0056 48.3924L49.9886 50.9213C51.3463 52.653 53.8478 52.9627 55.5869 51.6146L88.9752 25.733C89.3825 25.4173 89.7365 24.9024 89.5081 24.4404C89.3675 24.156 87.9249 21.7616 84.1986 20.3492C84.0182 20.2808 83.8443 20.216 83.6768 20.1544C81.5158 19.3605 78.0746 20.2845 76.2463 21.6836L48.7224 42.7477Z" fill="white"/>
<rect x="44" y="19" width="13" height="62" fill="#E82D30"/>
<path d="M17.3418 26.0583C16.669 25.5398 15.9969 25.0842 16.2986 24.2902C17.1365 22.085 20.7927 22.3032 22.6612 23.7434L38.8338 36.2082C39.5298 36.7446 40.3019 37.3868 40.6963 38.172C42.3557 41.4751 35.0984 39.7439 32.1706 37.4874L17.3418 26.0583Z" fill="#E82D30"/>
<path d="M83.579 26.0583C84.2517 25.5398 84.9239 25.0842 84.6222 24.2902C83.7842 22.085 80.1281 22.3032 78.2596 23.7434L62.0869 36.2082C61.391 36.7446 60.6189 37.3868 60.2244 38.172C58.565 41.4751 65.8224 39.7439 68.7502 37.4874L83.579 26.0583Z" fill="#E82D30"/>
<path d="M17.3418 74.0221C16.669 74.5406 15.9969 74.9962 16.2986 75.7902C17.1365 77.9954 20.7927 77.7772 22.6612 76.337L38.8338 63.8722C39.5298 63.3358 40.3019 62.6936 40.6963 61.9084C42.3557 58.6054 35.0984 60.3365 32.1706 62.593L17.3418 74.0221Z" fill="#E82D30"/>
<path d="M83.579 74.0221C84.2517 74.5406 84.9239 74.9962 84.6222 75.7902C83.7842 77.9954 80.1281 77.7772 78.2596 76.337L62.0869 63.8722C61.391 63.3358 60.6189 62.6936 60.2244 61.9084C58.565 58.6054 65.8224 60.3365 68.7502 62.593L83.579 74.0221Z" fill="#E82D30"/>
<rect x="8" y="56" width="12" height="33" transform="rotate(-90 8 56)" fill="#E82D30"/>
<rect x="60" y="56" width="12" height="33" transform="rotate(-90 60 56)" fill="#E82D30"/>
</svg>
