<?xml version="1.0" encoding="UTF-8" standalone="no" ?>
<!DOCTYPE svg PUBLIC "-//W3C//DTD SVG 1.1//EN" "http://www.w3.org/Graphics/SVG/1.1/DTD/svg11.dtd">
<svg xmlns="http://www.w3.org/2000/svg" xmlns:xlink="http://www.w3.org/1999/xlink" version="1.1" width="1080" height="1080" viewBox="0 0 1080 1080" xml:space="preserve">
<desc>Created with Fabric.js 5.3.0</desc>
<defs>
</defs>
<g transform="matrix(4.7921069215 0 0 4.7921069215 540.0359833308 588.7512433928)" id="2SKAuq_4y7CWTVuLiNqkM"  >
<path style="stroke: rgb(201,85,99); stroke-width: 0; stroke-dasharray: none; stroke-linecap: butt; stroke-dashoffset: 0; stroke-linejoin: miter; stroke-miterlimit: 4; fill: rgb(255,255,255); fill-rule: nonzero; opacity: 1;" vector-effect="non-scaling-stroke"  transform=" translate(0, 0)" d="M -72.65524 -48.3219 C -74.16617000000001 -68.50465 -60.308600000000006 -86.61467999999999 -40.43273000000001 -90.43252 C -31.450730000000007 -92.15782 -23.808390000000006 -92.9567 -12.851340000000008 -93.15843 C 7.580409999999993 -93.5346 21.923619999999993 -90.58874999999999 38.644499999999994 -86.92436 L 38.644499999999994 -86.92436 C 39.042489999999994 -86.83713999999999 39.304739999999995 -86.45633 39.244299999999996 -86.0534 C 39.18384999999999 -85.65047 38.82140999999999 -85.36337999999999 38.41533999999999 -85.39677999999999 C 23.214339999999993 -86.64724999999999 11.235759999999992 -87.50219 -7.794850000000004 -86.31078 C -20.463890000000006 -85.51764 -27.948880000000003 -84.01505999999999 -37.507580000000004 -81.26886999999999 L -37.507580000000004 -81.26886999999999 C -52.3524 -77.00398999999999 -62.1528 -62.88992999999999 -60.962270000000004 -47.490559999999995 L -52.24859000000001 65.22008 L -52.24859000000001 65.22008 L -52.24859000000001 65.22008 C -51.81702000000001 74.26401999999999 -44.68341000000001 81.55273 -35.65084 82.17868 L -35.109300000000005 82.21621 L 33.99472999999999 82.21621 L 34.10276999999999 82.20852000000001 L 34.10276999999999 82.20852000000001 C 43.13846999999999 81.56525 50.26664999999999 74.26836 50.69842999999999 65.22009 L 50.69842999999999 65.22009 L 61.592669999999984 -56.13541000000001 L 61.592669999999984 -56.13541000000001 C 61.969579999999986 -60.344440000000006 60.41082999999998 -64.49629 57.35705999999998 -67.41733 C 54.30328999999998 -70.33837000000001 50.086319999999986 -71.7112 45.89817999999998 -71.14774000000001 C 36.72350999999998 -69.91343000000002 35.435679999999984 -69.62918000000002 17.921709999999983 -69.08370000000001 C -0.718140000000016 -68.50315 -12.161380000000015 -68.78839 -26.959480000000013 -69.41088 L -26.959480000000013 -69.41088 C -27.512650000000015 -69.43415 -27.949410000000015 -69.88885 -27.950420000000012 -70.44250000000001 C -27.951420000000013 -70.99615000000001 -27.51631000000001 -71.45244000000001 -26.96323000000001 -71.47771000000002 C -12.12274000000001 -72.15595000000002 -2.60278000000001 -72.74999000000001 17.92170999999999 -74.93785000000001 C 37.46630999999999 -77.02126000000001 41.76186999999999 -77.82237 53.41649999999999 -79.81169000000001 L 53.41649999999999 -79.81169000000001 C 58.47193999999999 -80.67460000000001 63.64196999999999 -79.14711000000001 67.41672 -75.67532000000001 C 71.19147 -72.20352000000001 73.14515 -67.17903000000001 72.70721 -62.06921000000001 L 61.524730000000005 68.63266999999998 L 61.524730000000005 68.63266999999998 C 60.33641000000001 82.52186999999998 48.715610000000005 93.19087999999998 34.775670000000005 93.19087999999998 L -37.27099 93.19087999999998 L -37.27099 93.19087999999998 C -51.25183 93.19087999999998 -62.86817 82.41166999999997 -63.91189 68.46982999999997 z" stroke-linecap="round" />
</g>
<g transform="matrix(1.8450451723 0 0 3.26 574.0336700286 479.8814731404)" id="nl3SZkvJnbcwxhobPTVdY"  >
<path style="stroke: rgb(249,178,51); stroke-width: 0; stroke-dasharray: none; stroke-linecap: butt; stroke-dashoffset: 0; stroke-linejoin: miter; stroke-miterlimit: 4; fill: rgb(255,255,255); fill-rule: nonzero; opacity: 1;" vector-effect="non-scaling-stroke"  transform=" translate(0, 0)" d="M -111.06026 79.83626 C -111.31967 78.01572 -109.39631 76.32175 -106.36261 75.69888 C -103.32891000000001 75.07602 -99.93387 75.67804 -98.07052 77.16927 L -78.77108 92.61451 L -78.77108 92.61451 C -70.45116999999999 99.27288999999999 -56.9384 103.23137 -42.5291 103.23137 L -4.490859999999998 103.23137 L -4.490859999999998 103.23137 C 10.934580000000002 103.23137 24.066340000000004 96.87853 26.467060000000004 88.25465 L 82.72243 -113.82652999999999 L 82.72243 -113.82652999999999 C 83.37501 -116.17075 85.24900000000001 -118.35137999999999 88.10443000000001 -120.08921 L 100.00548 -127.33227 L 100.00548 -127.33227 C 101.88195 -128.4743 104.83997000000001 -128.80764 107.34624000000001 -128.15949999999998 C 109.85251000000001 -127.51134999999998 111.3434 -126.02748999999999 111.04609 -124.47705999999998 L 68.14794 99.23512000000001 L 68.14794 99.23512000000001 C 64.95669000000001 115.87734 40.127970000000005 128.48699000000002 10.550260000000009 128.48699000000002 L -55.883709999999994 128.48699000000002 L -55.883709999999994 128.48699000000002 C -83.13358 128.48699000000002 -105.81555999999999 116.64337000000002 -108.00601999999999 101.27081000000001 z" stroke-linecap="round" />
</g>
</svg>