<?xml version="1.0" encoding="UTF-8" standalone="no" ?>
<!DOCTYPE svg PUBLIC "-//W3C//DTD SVG 1.1//EN" "http://www.w3.org/Graphics/SVG/1.1/DTD/svg11.dtd">
<svg xmlns="http://www.w3.org/2000/svg" xmlns:xlink="http://www.w3.org/1999/xlink" version="1.1" width="24" height="24" viewBox="0 0 24 24" xml:space="preserve">
<desc>Created with Fabric.js 5.3.0</desc>
<defs>
</defs>
<g transform="matrix(0.029066336 0 0 0.029066336 12.0107540961 12.008616307)" id="4LexXiFBM7fQz7i-ggXDx"  >
<path style="stroke: none; stroke-width: 1; stroke-dasharray: none; stroke-linecap: butt; stroke-dashoffset: 0; stroke-linejoin: miter; stroke-miterlimit: 4; fill: rgb(255,255,255); fill-rule: nonzero; opacity: 1;"  transform=" translate(-479.999, 480)" d="M 166.309 -150.001 Q 125.276 -150.001 96.639 -178.639 Q 68 -207.276 68 -248.309 L 68 -711.691 Q 68 -752.724 96.638 -781.361 Q 125.275 -809.999 166.308 -809.999 L 793.6899999999999 -809.999 Q 834.723 -809.999 863.3599999999999 -781.361 Q 891.9979999999999 -752.7239999999999 891.9979999999999 -711.691 L 891.9979999999999 -248.30900000000003 Q 891.9979999999999 -207.276 863.3599999999999 -178.639 Q 834.723 -150.001 793.6899999999999 -150.001 L 166.309 -150.001 Z M 806 -638.309 L 505.461 -450.924 Q 499.596 -447.30899999999997 493.298 -445.30899999999997 Q 487 -443.30899999999997 480 -443.30899999999997 Q 473 -443.30899999999997 466.702 -445.30899999999997 Q 460.404 -447.30899999999997 454.539 -450.924 L 154 -638.309 L 154 -248.30899999999997 Q 154 -242.92399999999998 157.462 -239.46199999999996 Q 160.92399999999998 -235.99999999999997 166.309 -235.99999999999997 L 793.6909999999999 -235.99999999999997 Q 799.0759999999999 -235.99999999999997 802.5379999999999 -239.46199999999996 Q 805.9999999999999 -242.92399999999995 805.9999999999999 -248.30899999999997 L 805.9999999999999 -638.309 Z M 480 -520 L 807.846 -724 L 152.154 -724 L 480 -520 Z M 154 -638.309 L 154 -631.079 L 154 -693.155 L 154 -691.616 L 154 -724 L 154 -691.616 L 154 -693.885 L 154 -631.079 L 154 -638.309 L 154 -236 L 154 -638.309 Z" stroke-linecap="round" />
</g>
</svg>