<svg width="100" height="100" viewBox="0 0 100 100" fill="none" xmlns="http://www.w3.org/2000/svg">
<path d="M16.9657 84.1802C14.3421 84.1802 12.1064 83.2563 10.2584 81.4083C8.41053 79.5604 7.48657 77.3247 7.48657 74.701V25.299C7.48657 22.6753 8.41053 20.4396 10.2584 18.5917C12.1064 16.7438 14.3421 15.8198 16.9657 15.8198H83.0345C85.6581 15.8198 87.8939 16.7438 89.7418 18.5917C91.5897 20.4396 92.5137 22.6753 92.5137 25.299V74.701C92.5137 77.3247 91.5897 79.5604 89.7418 81.4083C87.8939 83.2563 85.6581 84.1802 83.0345 84.1802H16.9657ZM50.0001 54.3844C50.414 54.3844 50.8366 54.324 51.2678 54.2031C51.6998 54.0823 52.1143 53.901 52.5116 53.6594L81.2189 35.5458C81.7904 35.1986 82.2359 34.7396 82.5553 34.1688C82.8748 33.5979 83.0345 32.967 83.0345 32.276C83.0345 30.7872 82.3904 29.6583 81.1022 28.8896C79.8133 28.1201 78.4859 28.159 77.1199 29.0063L50.0001 46.1323L22.8803 29.0063C21.531 28.1757 20.2078 28.1458 18.9105 28.9167C17.614 29.6875 16.9657 30.8073 16.9657 32.276C16.9657 33.0365 17.1255 33.6979 17.4449 34.2604C17.7643 34.8229 18.2098 35.2514 18.7814 35.5458L47.4887 53.6594C47.8859 53.901 48.3005 54.0823 48.7324 54.2031C49.1637 54.324 49.5862 54.3844 50.0001 54.3844Z" fill="white"/>
</svg>
