<svg width="100" height="100" viewBox="0 0 100 100" fill="none" xmlns="http://www.w3.org/2000/svg">
<path d="M16.9657 84.1802C14.3421 84.1802 12.1064 83.2563 10.2584 81.4083C8.41053 79.5604 7.48657 77.3247 7.48657 74.701V25.299C7.48657 22.6753 8.41053 20.4396 10.2584 18.5917C12.1064 16.7438 14.3421 15.8198 16.9657 15.8198H83.0345C85.6581 15.8198 87.8939 16.7438 89.7418 18.5917C91.5897 20.4396 92.5137 22.6753 92.5137 25.299V74.701C92.5137 77.3247 91.5897 79.5604 89.7418 81.4083C87.8939 83.2563 85.6581 84.1802 83.0345 84.1802H16.9657ZM50.0001 55.2375L16.9657 34.4042V74.701H83.0345V34.4042L50.0001 55.2375ZM50.0001 46.1323L83.0345 25.299H16.9657L50.0001 46.1323ZM16.9657 34.4042V25.299V74.701V34.4042Z" fill="#0E0E0E"/>
</svg>
