<?xml version="1.0" encoding="UTF-8" standalone="no" ?>
<!DOCTYPE svg PUBLIC "-//W3C//DTD SVG 1.1//EN" "http://www.w3.org/Graphics/SVG/1.1/DTD/svg11.dtd">
<svg xmlns="http://www.w3.org/2000/svg" xmlns:xlink="http://www.w3.org/1999/xlink" version="1.1" width="24" height="24" viewBox="0 0 24 24" xml:space="preserve">
<desc>Created with Fabric.js 5.3.0</desc>
<defs>
</defs>
<g transform="matrix(0.0484210574 0 0 0.0484210574 11.9879034525 11.9852517463)" id="7qlQhmPmh5jYyx_hsNudl"  >
<path style="stroke: none; stroke-width: 1; stroke-dasharray: none; stroke-linecap: butt; stroke-dashoffset: 0; stroke-linejoin: miter; stroke-miterlimit: 4; fill: rgb(33,33,33); fill-rule: nonzero; opacity: 1;"  transform=" translate(-522.5, 480)" d="M 320 -273 L 320 -687 Q 320 -704 332 -715.5 Q 344 -727 360 -727 Q 365 -727 370.5 -725.5 Q 376 -724 381 -721 L 707 -514 Q 716 -508 720.5 -499 Q 725 -490 725 -480 Q 725 -470 720.5 -461 Q 716 -452 707 -446 L 381 -239 Q 376 -236 370.5 -234.5 Q 365 -233 360 -233 Q 344 -233 332 -244.5 Q 320 -256 320 -273 Z" stroke-linecap="round" />
</g>
</svg>