<svg width="80" height="80" viewBox="0 0 80 80" fill="none" xmlns="http://www.w3.org/2000/svg">
<g clip-path="url(#clip0_1036_104)">
<path d="M78.328 1.66796C77.1092 0.449156 75.3163 0.0859554 73.7225 0.730456L3.0235 29.5895C-0.542902 30.8942 -0.406202 36.3512 3.17584 37.527L29.9608 47.2301C30.2694 46.9254 60.6248 16.5621 62.0268 15.1641C62.7964 14.3945 64.058 14.3945 64.8276 15.1641C65.5972 15.9336 65.5972 17.1953 64.8276 17.9649C63.4253 19.3672 33.0616 49.7269 32.7616 50.0309L42.4804 76.8319C43.6406 80.4139 49.1171 80.5311 50.4062 76.9725L79.2652 6.27747C79.9098 4.67977 79.5465 2.89078 78.3277 1.67198L78.328 1.66796Z" fill="white"/>
</g>
<defs>
<clipPath id="clip0_1036_104">
<rect width="80" height="80" fill="white"/>
</clipPath>
</defs>
</svg>
