<svg width="100" height="100" viewBox="0 0 100 100" fill="none" xmlns="http://www.w3.org/2000/svg">
<path d="M70.8333 91.6667C67.361 91.6667 64.4096 90.4514 61.9791 88.0208C59.5485 85.5903 58.3333 82.6389 58.3333 79.1666C58.3333 78.75 58.4374 77.7778 58.6458 76.25L29.3749 59.1666C28.2638 60.2083 26.9791 61.0243 25.5208 61.6146C24.0624 62.2048 22.4999 62.5 20.8333 62.5C17.361 62.5 14.4096 61.2847 11.9791 58.8541C9.54853 56.4236 8.33325 53.4722 8.33325 50C8.33325 46.5278 9.54853 43.5764 11.9791 41.1458C14.4096 38.7153 17.361 37.5 20.8333 37.5C22.4999 37.5 24.0624 37.7951 25.5208 38.3854C26.9791 38.9757 28.2638 39.7916 29.3749 40.8333L58.6458 23.75C58.5069 23.2639 58.4201 22.7951 58.3853 22.3437C58.3506 21.8923 58.3333 21.3889 58.3333 20.8333C58.3333 17.3611 59.5485 14.4097 61.9791 11.9791C64.4096 9.54859 67.361 8.33331 70.8333 8.33331C74.3055 8.33331 77.2569 9.54859 79.6874 11.9791C82.118 14.4097 83.3333 17.3611 83.3333 20.8333C83.3333 24.3055 82.118 27.2569 79.6874 29.6875C77.2569 32.118 74.3055 33.3333 70.8333 33.3333C69.1666 33.3333 67.6041 33.0382 66.1458 32.4479C64.6874 31.8576 63.4027 31.0416 62.2916 30L33.0208 47.0833C33.1596 47.5694 33.2464 48.0382 33.2812 48.4896C33.3159 48.941 33.3333 49.4444 33.3333 50C33.3333 50.5555 33.3159 51.059 33.2812 51.5104C33.2464 51.9618 33.1596 52.4305 33.0208 52.9166L62.2916 70C63.4027 68.9583 64.6874 68.1423 66.1458 67.5521C67.6041 66.9618 69.1666 66.6666 70.8333 66.6666C74.3055 66.6666 77.2569 67.8819 79.6874 70.3125C82.118 72.743 83.3333 75.6944 83.3333 79.1666C83.3333 82.6389 82.118 85.5903 79.6874 88.0208C77.2569 90.4514 74.3055 91.6667 70.8333 91.6667Z" fill="white"/>
</svg>
