<svg width="14" height="16" viewBox="0 0 14 16" fill="none" xmlns="http://www.w3.org/2000/svg">
<path d="M14 10.87V5.13C14 4.41 13.62 3.75 13 3.4L8 0.52C7.69 0.34 7.35 0.25 7 0.25C6.65 0.25 6.31 0.34 6 0.52L1 3.39C0.38 3.75 0 4.41 0 5.13V10.87C0 11.59 0.38 12.25 1 12.6L6 15.48C6.31 15.66 6.65 15.75 7 15.75C7.35 15.75 7.69 15.66 8 15.48L13 12.6C13.62 12.25 14 11.59 14 10.87ZM6 13.17L2 10.87V6.24L6 8.57V13.17ZM7 6.84L3.04 4.53L7 2.25L10.96 4.53L7 6.84ZM12 10.87L8 13.17V8.57L12 6.24V10.87Z" fill="black"/>
</svg>
