<svg width="18" height="18" viewBox="0 0 18 18" fill="none" xmlns="http://www.w3.org/2000/svg">
<path d="M7.99976 5.75V9.43C7.99976 9.78 8.18976 10.11 8.48976 10.29L11.6098 12.14C11.9698 12.35 12.4298 12.23 12.6398 11.88C12.8498 11.52 12.7398 11.06 12.3798 10.85L9.50976 9.14V5.74C9.49976 5.34 9.15976 5 8.74976 5C8.33976 5 7.99976 5.34 7.99976 5.75ZM17.9998 6.5V1.21C17.9998 0.759999 17.4598 0.539999 17.1498 0.859999L15.3698 2.64C13.5598 0.829998 10.9798 -0.210001 8.15976 0.0399986C3.96976 0.419999 0.519763 3.79 0.059763 7.98C-0.540237 13.4 3.68976 18 8.99976 18C13.5898 18 17.3798 14.56 17.9298 10.12C17.9998 9.52 17.5298 9 16.9298 9C16.4298 9 16.0098 9.37 15.9498 9.86C15.5198 13.35 12.5098 16.05 8.89976 16C5.18976 15.95 2.05976 12.82 1.99976 9.1C1.93976 5.2 5.10976 2 8.99976 2C10.9298 2 12.6798 2.79 13.9498 4.05L11.8598 6.14C11.5398 6.46 11.7598 7 12.2098 7H17.4998C17.7798 7 17.9998 6.78 17.9998 6.5Z" fill="black"/>
</svg>
