<svg width="20" height="18" viewBox="0 0 20 18" fill="none" xmlns="http://www.w3.org/2000/svg">
<path d="M13 0C13.55 0 14 0.45 14 1V7H15.59C16.48 7 16.93 8.08 16.3 8.71L13.71 11.3C13.32 11.69 12.69 11.69 12.3 11.3L9.71 8.71C9.08 8.08 9.52 7 10.41 7H12V1C12 0.45 12.45 0 13 0ZM4 16.59C4 17.37 4.63 18 5.41 18H14.58C15.36 18 15.99 17.37 15.99 16.59C15.99 15.87 15.55 15.56 14.99 15H17.99C19.09 15 19.99 14.1 19.99 13V11C19.99 10.45 19.54 10 18.99 10C18.44 10 17.99 10.45 17.99 11V13H2V2H9C9.55 2 10 1.55 10 1C10 0.45 9.55 0 9 0H2C0.9 0 0 0.9 0 2V13C0 14.1 0.9 15 2 15H5C4.45 15.55 4 15.87 4 16.59Z" fill="white"/>
</svg>
