<svg width="100" height="100" viewBox="0 0 100 100" fill="none" xmlns="http://www.w3.org/2000/svg">
<path d="M89.7969 29C89 24.6016 85.2031 21.3984 80.7969 20.3984C74.2031 19 62 18 48.7969 18C35.6016 18 23.2031 19 16.6016 20.3984C12.2031 21.3984 8.39844 24.3984 7.60156 29C6.79688 34 6 41 6 50C6 59 6.79688 66 7.79688 71C8.60156 75.3984 12.3984 78.6016 16.7969 79.6016C23.7969 81 35.7969 82 49 82C62.2031 82 74.2031 81 81.2031 79.6016C85.6016 78.6016 89.3984 75.6016 90.2031 71C91 66 92 58.7969 92.2031 50C91.7969 41 90.7969 34 89.7969 29ZM38 64V36L62.3984 50L38 64Z" fill="white"/>
</svg>
